<svg width="40" height="40" viewBox="0 0 40 40" fill="none" xmlns="http://www.w3.org/2000/svg">
<g opacity="0.1">
<circle cx="20" cy="20" r="20" transform="rotate(-180 20 20)" fill="#0064D2"/>
</g>
<path fill-rule="evenodd" clip-rule="evenodd" d="M12 20C12 19.4477 12.4477 19 13 19L27 19C27.5523 19 28 19.4477 28 20C28 20.5523 27.5523 21 27 21L13 21C12.4477 21 12 20.5523 12 20Z" fill="#0064D2"/>
<path fill-rule="evenodd" clip-rule="evenodd" d="M19.2929 12.2929C19.6834 11.9024 20.3166 11.9024 20.7071 12.2929L27.7071 19.2929C28.0976 19.6834 28.0976 20.3166 27.7071 20.7071L20.7071 27.7071C20.3166 28.0976 19.6834 28.0976 19.2929 27.7071C18.9024 27.3166 18.9024 26.6834 19.2929 26.2929L25.5858 20L19.2929 13.7071C18.9024 13.3166 18.9024 12.6834 19.2929 12.2929Z" fill="#0064D2"/>
</svg>
